# xmcd
#
# Track frame offsets: 
#        150
#        24188
#        48074
#        71277
#        85521
#        104431
#        138259
#        166946
#        187372
#        211253
#        238487
#        266526
#        282583
#        297690
#        327423
#
# Disc length: 4717 seconds
#
# Revision: 2
# Processed by: cddbd v1.5.2PL0 Copyright (c) Steve Scherf et al.
# Submitted via: ExactAudioCopyFreeDBPlugin 1.0
#
DISCID=e1126b0f
DTITLE=Marie-Aude Murail - Simpel
DYEAR=2007
DGENRE=Hörbuch
TTITLE0=Kapitel 04 -  In dem Monsieur Hasehase in die Kirche geht und 
TTITLE0=vergisst, nach Hause zu kommen
TTITLE1=Kapitel 04 -  In dem Monsieur Hasehase in die Kirche geht und 
TTITLE1=vergisst, nach Hause zu kommen
TTITLE2=Kapitel 04 -  In dem Monsieur Hasehase in die Kirche geht und 
TTITLE2=vergisst, nach Hause zu kommen
TTITLE3=Kapitel 05 -  In dem Monsieur Hasehase zu viel feiert und auf 
TTITLE3=dem OP-Tisch endet
TTITLE4=Kapitel 05 -  In dem Monsieur Hasehase zu viel feiert und auf 
TTITLE4=dem OP-Tisch endet
TTITLE5=Kapitel 05 -  In dem Monsieur Hasehase zu viel feiert und auf 
TTITLE5=dem OP-Tisch endet
TTITLE6=Kapitel 05 -  In dem Monsieur Hasehase zu viel feiert und auf 
TTITLE6=dem OP-Tisch endet
TTITLE7=Kapitel 06 -  In dem Monsieur Hasehase Liebe macht und Krieg f
TTITLE7=ührt
TTITLE8=Kapitel 06 -  In dem Monsieur Hasehase Liebe macht und Krieg f
TTITLE8=ührt
TTITLE9=Kapitel 06 -  In dem Monsieur Hasehase Liebe macht und Krieg f
TTITLE9=ührt
TTITLE10=Kapitel 06 -  In dem Monsieur Hasehase Liebe macht und Krieg 
TTITLE10=führt
TTITLE11=Kapitel 07 -  In dem Monsieur Hasehase knapp den Haien entkom
TTITLE11=mt
TTITLE12=Kapitel 07 -  In dem Monsieur Hasehase knapp den Haien entkom
TTITLE12=mt
TTITLE13=Kapitel 07 -  In dem Monsieur Hasehase knapp den Haien entkom
TTITLE13=mt
TTITLE14=Kapitel 07 -  In dem Monsieur Hasehase knapp den Haien entkom
TTITLE14=mt
EXTD=
EXTT0=
EXTT1=
EXTT2=
EXTT3=
EXTT4=
EXTT5=
EXTT6=
EXTT7=
EXTT8=
EXTT9=
EXTT10=
EXTT11=
EXTT12=
EXTT13=
EXTT14=
PLAYORDER=
